<svg width="20" height="26" data-name="Layer 1" version="1.1" viewBox="0 0 20 26" xmlns="http://www.w3.org/2000/svg"><defs><style>.cls-1{fill:#010101;}.cls-2{fill:#fff;}.cls-3{fill:#ddf0fd;}.cls-4{fill:#4cbfea;}</style></defs><path class="cls-1" d="m10 0.377c-6.67 0-3.34 0 0 0zm0 0c-0.28 0.00292-0.548 0.114-0.74 0.308-0.231 0.248-0.43 0.758-0.538 0.86s-0.8 0.13-1.17 0.319c-0.37 0.19-0.756 0.919-0.971 1.11-0.319 0.178-0.609 0.4-0.86 0.658-0.222 0.348-0.345 0.745-0.358 1.15-2.72 1.05-5.37 4.71-5.37 8.97 0 3.95 2.28 7.39 4.79 8.71 0.116 0.628 0.601 1.14 1.25 1.31 0.154 0.029 0.304 0.074 0.448 0.134 0.354 0.16 0.63 0.613 0.938 0.613h0.785c0.279 0.0392 0.544 0.144 0.77 0.305 0.251 0.137 0.528 0.225 0.815 0.259 0.0488 0.0217 0.104 0.0277 0.156 0.0171 0.016-7.88e-4 0.032-0.0015 0.048-0.0029 0.0191 0.0012 0.038 0.0015 0.0571 0.0029 0.0559 0.0117 0.114 0.0044 0.165-0.02 0.284-0.0354 0.557-0.123 0.806-0.256 0.226-0.161 0.49-0.266 0.77-0.305h0.77c0.323 0 0.599-0.452 0.938-0.613 0.149-0.06 0.304-0.105 0.463-0.134 0.647-0.173 1.13-0.681 1.25-1.31 2.5-1.31 4.78-4.75 4.78-8.71 0-4.26-2.64-7.92-5.35-8.97-0.0139-0.407-0.138-0.803-0.361-1.15-0.252-0.263-0.548-0.485-0.875-0.658-0.216-0.19-0.587-0.919-0.956-1.11s-1.06-0.217-1.17-0.319-0.307-0.612-0.538-0.86c-0.193-0.192-0.46-0.303-0.74-0.308z"/><path class="cls-3" d="m11 4.84a1.09 1.04 0 0 0-0.0062-0.0371 1.09 1.04 0 0 0-0.0092-0.0514 1.09 1.04 0 0 0-0.0154-0.0514 1.09 1.04 0 0 0-0.0154-0.0512 1.09 1.04 0 0 0-0.0211-0.0484 1.09 1.04 0 0 0-0.0211-0.0484 1.09 1.04 0 0 0-0.0271-0.0484 1.09 1.04 0 0 0-0.0271-0.0455 1.09 1.04 0 0 0-0.0271-0.0455 1.09 1.04 0 0 0-0.0331-0.0427 1.09 1.04 0 0 0-0.036-0.0427 1.09 1.04 0 0 0-0.036-0.0398 1.09 1.04 0 0 0-0.0391-0.0371 1.09 1.04 0 0 0-0.0391-0.0371 1.09 1.04 0 0 0-0.042-0.0341 1.09 1.04 0 0 0-0.0451-0.0341 1.09 1.04 0 0 0-0.0451-0.0284 1.09 1.04 0 0 0-0.048-0.0284 1.09 1.04 0 0 0-0.0511-0.0257 1.09 1.04 0 0 0-0.048-0.0228 1.09 1.04 0 0 0-0.0511-0.02 1.09 1.04 0 0 0-0.0542-0.0171 1.09 1.04 0 0 0-0.054-0.0171 1.09 1.04 0 0 0-0.0542-0.0117 1.09 1.04 0 0 0-0.0542-0.0117 1.09 1.04 0 0 0-0.054-0.00584 1.09 1.04 0 0 0-0.0571-0.00584 1.09 1.04 0 0 0-0.168 0.02 1.09 1.04 0 0 0-0.162 0.0455 1.09 1.04 0 0 0-0.153 0.0655 1.09 1.04 0 0 0-0.141 0.0912 1.09 1.04 0 0 0-0.123 0.108 1.09 1.04 0 0 0-0.105 0.125 1.09 1.04 0 0 0-0.0842 0.14 1.09 1.04 0 0 0-0.0602 0.151 1.09 1.04 0 0 0-0.0271 0.125c0.499 0.222 0.85 0.551 1.05 0.98 0.177-0.418 0.51-0.741 0.989-0.963z"/><path class="cls-3" d="m10 0.859c-0.408 0.0241-0.718 0.357-0.692 0.744 0 0.379 0.598 0.482 0.598 0.846 0 0.146-0.0907 0.145-0.198 0.145-0.108 0-0.631-0.407-1.17-0.407s-1.12 0.0867-1.12 0.524c0 0.204 1.54 0.219 1.54 0.729 0 0.16-0.215 0.162-0.4 0.162-0.441-0.153-0.895-0.27-1.36-0.35-0.647 0-1.09 0.656-1.25 1.36 0.326-0.0855 0.663-0.13 1-0.131 0.597 0 1.12 0.0598 1.55 0.179 0.0711-0.618 0.726-1.18 1.49-1.18 0.769 0.00584 1.45 0.628 1.5 1.19 0.448-0.127 0.985-0.191 1.61-0.191 0.334 3.94e-4 0.666 0.0445 0.986 0.131-0.139-0.7-0.586-1.36-1.23-1.36-0.461 0.0807-0.913 0.198-1.35 0.35-0.185 0-0.4-0.0165-0.4-0.162 0-0.511 1.46-0.525 1.46-0.729 0-0.438-0.709-0.524-1.12-0.524s-1.05 0.407-1.15 0.407c-0.108 0-0.198-0.0578-0.198-0.145 0-0.365 0.598-0.467 0.598-0.846 0.0262-0.386-0.284-0.72-0.692-0.744z"/><path class="cls-4" d="m10 3.95a1.09 1.04 0 0 0-1.03 0.886 2.02 1.91 0 0 1 1.02 0.966 1.96 1.85 0 0 1 1.02-0.966 1.09 1.04 0 0 0-1.01-0.886z"/><path class="cls-3" d="m10 24.7a1.29 1.23 0 0 0 0.908-0.248c0.139-0.146 0.231-0.394 0.4-0.394s0.677 0.117 1.02 0.117 0.57-0.438 0.908-0.627 1-0.102 1.22-0.511a0.508 0.481 0 0 0 0-0.248 3.79 3.59 0 0 1-1.4 0.263c-1.66 0-2.71-0.452-3.08-1.33-0.4 0.875-1.45 1.33-3.08 1.33a3.93 3.72 0 0 1-1.42-0.263 1.31 1.24 0 0 0 0 0.248c0.231 0.408 0.847 0.277 1.23 0.511 0.385 0.233 0.493 0.627 0.893 0.627 0.4 0 0.816-0.117 1.03-0.117s0.262 0.248 0.4 0.394a1.29 1.23 0 0 0 0.908 0.248z"/><path class="cls-3" d="m19.2 13.8a5.77 5.47 0 0 1-3.71 4.93c-0.878 0.277-2.4 0.496-2.4 0.7 0 0.627 1.06 1.34 1.06 1.46a2.88 2.73 0 0 1-1.31 0.408c-0.077 0-0.154 0-0.154-0.102s0.216-0.394 0.216-0.627a1.54 1.46 0 0 0-1.54-1.46 1.54 1.46 0 0 0-1.4 0.89 1.54 1.46 0 0 0-2.93 0.54c0 0.233 0.216 0.54 0.216 0.627 0 0.0875 0 0.102-0.154 0.102a2.88 2.73 0 0 1-1.31-0.408s1.06-0.773 1.06-1.46c0-0.204-1.54-0.423-2.42-0.7a5.51 5.22 0 0 1 0-9.86c0.893-0.277 2.42-0.496 2.42-0.7 0-0.642-1.06-1.34-1.06-1.46a2.88 2.73 0 0 1 1.31-0.408c0.077 0 0.154 0 0.154 0.102s-0.216 0.394-0.216 0.627a1.54 1.46 0 0 0 2.93 0.54 1.54 1.46 0 0 0 1.4 0.875 1.54 1.46 0 0 0 1.54-1.46c0-0.233-0.216-0.54-0.216-0.627 0-0.0875 0-0.102 0.154-0.102a2.88 2.73 0 0 1 1.31 0.408s-1.06 0.759-1.06 1.46c0 0.204 1.54 0.423 2.4 0.7a5.77 5.47 0 0 1 3.71 4.93z"/><path class="cls-2" d="m8.59 8.07c-0.496-0.0478-0.895-0.408-0.97-0.875-0.0176-0.266 0.196-0.495 0.477-0.511 0.416 0 0.308 0.744 0.508 0.744 0.2 0 0.4-0.481 0.169-0.919-0.217-0.339-0.614-0.535-1.03-0.511-2.46 0-4.76 1.46-4.76 2.23 0 0.146 0.0924 0.292 0.139 0.292 0.0462 0 0.985-1.24 1.89-1.24 0.387 0.0131 0.741 0.21 0.939 0.525 0 0.263-1.23 0.336-2.26 0.817-1 0.518-1.84 1.29-2.4 2.23-0.0705 0.124-0.153 0.241-0.246 0.35v-0.131c0-1.23 2.54-6.1 6.28-6.1 1.39 0 2.42 0.948 2.46 1.66-0.0385 0.708-0.485 1.44-1.19 1.44z"/><path class="cls-2" d="m11.5 8.11c0.496-0.0478 0.895-0.408 0.97-0.875 0.0176-0.266-0.196-0.495-0.477-0.511-0.416 0-0.308 0.744-0.508 0.744s-0.4-0.481-0.169-0.919c0.217-0.339 0.614-0.535 1.03-0.511 2.46 0 4.76 1.46 4.76 2.23 0 0.146-0.0924 0.292-0.139 0.292-0.0462 0-0.985-1.24-1.89-1.24-0.387 0.0131-0.741 0.21-0.939 0.525 0 0.263 1.23 0.336 2.26 0.817 1 0.518 1.84 1.29 2.4 2.23 0.0705 0.124 0.153 0.241 0.246 0.35v-0.131c0-1.23-2.54-6.1-6.28-6.1-1.39 0-2.42 0.948-2.46 1.66 0.0385 0.708 0.485 1.44 1.19 1.44z"/><path class="cls-2" d="m8.56 19.4c-0.496 0.0478-0.895 0.408-0.97 0.875-0.0176 0.266 0.196 0.495 0.477 0.511 0.416 0 0.308-0.744 0.508-0.744 0.2 0 0.4 0.481 0.169 0.919-0.217 0.339-0.614 0.535-1.03 0.511-2.46 0-4.76-1.46-4.76-2.23 0-0.146 0.0924-0.292 0.139-0.292 0.0462 0 0.985 1.24 1.89 1.24 0.387-0.0131 0.741-0.21 0.939-0.525 0-0.263-1.23-0.336-2.26-0.817-1-0.518-1.84-1.29-2.4-2.23-0.0705-0.124-0.153-0.241-0.246-0.35v0.131c0 1.23 2.54 6.1 6.28 6.1 1.39 0 2.42-0.948 2.46-1.66-0.0385-0.708-0.485-1.44-1.19-1.44z"/><path class="cls-2" d="m11.4 19.4c0.496 0.0478 0.895 0.408 0.97 0.875 0.0176 0.266-0.196 0.495-0.477 0.511-0.416 0-0.308-0.744-0.508-0.744-0.2 0-0.4 0.481-0.169 0.919 0.217 0.339 0.614 0.535 1.03 0.511 2.46 0 4.76-1.46 4.76-2.23 0-0.146-0.0924-0.292-0.139-0.292-0.0462 0-0.985 1.24-1.89 1.24-0.387-0.0131-0.741-0.21-0.939-0.525 0-0.263 1.23-0.336 2.26-0.817 1-0.518 1.84-1.29 2.4-2.23 0.0705-0.124 0.153-0.241 0.246-0.35v0.131c0 1.23-2.54 6.1-6.28 6.1-1.39 0-2.42-0.948-2.46-1.66 0.0385-0.708 0.485-1.44 1.19-1.44z"/></svg>
